<svg width="14" height="16" viewBox="0 0 14 16" fill="none" xmlns="http://www.w3.org/2000/svg">
<path d="M1.40587 6.313C0.847593 6.98294 1.32398 8.00005 2.19604 8.00005H4.00002V10.9715C4.00002 11.5396 4.46053 12.0001 5.0286 12.0001H8.30482C8.87289 12.0001 9.33339 11.5396 9.33339 10.9715V8.00005H11.1374C12.0094 8.00005 12.4858 6.98294 11.9275 6.313L7.45688 0.948205C7.04566 0.454744 6.28776 0.454743 5.87654 0.948205L1.40587 6.313Z" fill="white"/>
<path d="M8.66639 14.667H4.66637C4.48955 14.667 4.31998 14.7372 4.19496 14.8623C4.06993 14.9873 3.99969 15.1569 3.99969 15.3337C3.99969 15.5105 4.06993 15.68 4.19496 15.8051C4.31998 15.9301 4.48955 16.0003 4.66637 16.0003H8.66639C8.8432 16.0003 9.01277 15.9301 9.1378 15.8051C9.26282 15.68 9.33306 15.5105 9.33306 15.3337C9.33306 15.1569 9.26282 14.9873 9.1378 14.8623C9.01277 14.7372 8.8432 14.667 8.66639 14.667Z" fill="white"/>
</svg>
