<svg data-v-423bf9ae="" xmlns="http://www.w3.org/2000/svg" viewBox="0 0 106.87128173256744 60" class="font"><!----><!----><!----><g data-v-423bf9ae="" id="5c3ba81e-0409-4ea8-b31f-3839c92af3e8" fill="#1877F2" transform="matrix(5.940593835033989,0,0,5.940593835033989,-1.6633665438710707,-19.485147370531152)"><path d="M7.77 3.28C7.13 3.36 6.54 3.39 5.85 3.39L2.44 3.39C1.75 3.39 1.16 3.36 0.52 3.28L0.28 5.84L0.31 5.85C0.63 5.29 1.29 4.82 2.13 4.82L3.19 4.82L3.19 10.91C3.19 12.10 2.74 12.85 2.34 13.09L2.34 13.12L5.96 13.12L5.96 13.09C5.50 12.85 5.11 12.11 5.11 10.91L5.11 4.82L6.16 4.82C7 4.82 7.66 5.29 7.98 5.85L8.01 5.84ZM11.79 11.03L11.79 5.49C11.79 4.34 12.15 3.65 12.47 3.42L12.47 3.39L9.11 3.39L9.11 3.42C9.48 3.65 9.87 4.33 9.87 5.43L9.87 11.02C9.87 12.17 9.46 12.85 9.11 13.09L9.11 13.12L12.47 13.12L12.47 13.09C12.15 12.85 11.79 12.18 11.79 11.03ZM16.72 11.54L14.06 7.64L16.03 4.97C16.48 4.35 17.09 3.70 17.68 3.42L17.68 3.39L14.77 3.39C14.78 3.65 14.66 4.00 14.31 4.51L11.94 7.85L14.77 12.05C15.09 12.53 15.37 13.06 15.46 13.38L18.27 12.91L18.27 12.88C17.58 12.60 17.19 12.24 16.72 11.54Z"></path></g><!----><!----></svg>